<?xml version="1.0" encoding="utf-8"?>
<!-- Generator: Adobe Illustrator 15.0.0, SVG Export Plug-In . SVG Version: 6.00 Build 0)  -->
<!DOCTYPE svg PUBLIC "-//W3C//DTD SVG 1.1//EN" "http://www.w3.org/Graphics/SVG/1.1/DTD/svg11.dtd">
<svg version="1.1" id="Capa_1" xmlns="http://www.w3.org/2000/svg" xmlns:xlink="http://www.w3.org/1999/xlink" x="0px" y="0px"
	 width="800px" height="800px" viewBox="0 0 800 800" enable-background="new 0 0 800 800" xml:space="preserve">
<g>
	<g>
		<path fill="#ffffff" d="M717.205,613.022V230.728h-16.269v-85.719c0-12.353-8.535-22.687-20.022-25.499V67.422h-65.071v402.945
			h65.071v-0.007h3.756v142.66h-71.855v55.062h176.244v-55.062h-71.854V613.022z"/>
		<polygon fill="#ffffff" points="543.891,612.449 331.156,638.05 331.156,668.083 543.891,668.083 		"/>
		<rect x="331.156" y="680.021" fill="#ffffff" width="457.902" height="52.558"/>
	</g>
	<circle fill="#ffffff" cx="220.075" cy="222.534" r="114.071"/>
	<path fill="#ffffff" d="M420.477,502.31l-183.49-0.146l-6.189-0.019v-30.332l-0.214-25.392c0-60.65-49.169-109.821-109.822-109.821
		c-2.055,0-4.095,0.069-6.123,0.18l-0.154-0.18c-57.185,0.001-103.543,46.358-103.543,103.542v292.433h219.857V608.002l-2.908-0.229
		c-0.207-0.019-0.258,0.002-0.387,0.002c-14.876,0-29.132-6.264-39.178-17.232l-89.236-97.407c-2.845-3.104-2.634-7.926,0.47-10.769
		c3.103-2.845,7.925-2.635,10.769,0.471l89.236,97.404c7.25,7.916,17.477,12.757,28.244,12.914c0.716,0.008,10.491,0.15,10.491,0.15
		h182.178c25.128,0,45.499-20.371,45.499-45.501C465.976,522.679,445.604,502.31,420.477,502.31z"/>
</g>
</svg>
