<?xml version="1.0" encoding="utf-8"?>
<!-- Generator: Adobe Illustrator 15.0.0, SVG Export Plug-In . SVG Version: 6.00 Build 0)  -->
<!DOCTYPE svg PUBLIC "-//W3C//DTD SVG 1.1//EN" "http://www.w3.org/Graphics/SVG/1.1/DTD/svg11.dtd">
<svg version="1.1" id="Capa_1" xmlns="http://www.w3.org/2000/svg" xmlns:xlink="http://www.w3.org/1999/xlink" x="0px" y="0px"
	 width="800px" height="800px" viewBox="0 -94.122 800 800" enable-background="new 0 -94.122 800 800" xml:space="preserve">
<g>
	<circle fill="#ffffff" cx="400.001" cy="114.266" r="155.781"/>
	<polygon fill="#ffffff" points="438.377,331.345 400,292.969 361.624,331.345 	"/>
	<path fill="#ffffff" d="M762.986,618.602c0.486-0.283,0.976-0.562,1.455-0.854c0.341-0.209,0.676-0.433,1.014-0.649
		c0.503-0.322,1.006-0.646,1.498-0.979c0.309-0.215,0.616-0.436,0.922-0.654c0.512-0.364,1.018-0.731,1.516-1.11
		c0.293-0.222,0.58-0.452,0.874-0.683c0.494-0.391,0.983-0.786,1.47-1.192c0.114-0.097,0.236-0.188,0.352-0.286
		c0.188-0.159,0.364-0.33,0.549-0.493c0.438-0.382,0.872-0.77,1.297-1.165c0.344-0.317,0.681-0.64,1.016-0.965
		c0.348-0.337,0.692-0.683,1.032-1.028c0.387-0.395,0.767-0.789,1.139-1.193c0.267-0.287,0.528-0.574,0.786-0.863
		c0.419-0.469,0.832-0.938,1.23-1.419c0.202-0.239,0.399-0.48,0.598-0.724c0.432-0.529,0.854-1.064,1.264-1.608
		c0.161-0.211,0.317-0.428,0.479-0.645c0.422-0.569,0.833-1.146,1.232-1.729c0.149-0.216,0.293-0.438,0.438-0.66
		c0.385-0.58,0.765-1.164,1.129-1.756c0.159-0.259,0.312-0.524,0.471-0.787c0.33-0.553,0.651-1.108,0.962-1.671
		c0.189-0.343,0.368-0.691,0.553-1.038c0.252-0.485,0.512-0.973,0.752-1.467c0.22-0.449,0.433-0.907,0.64-1.364
		c0.186-0.395,0.372-0.795,0.545-1.196c0.244-0.559,0.473-1.13,0.7-1.697c0.122-0.306,0.246-0.613,0.362-0.92
		c0.248-0.653,0.481-1.314,0.706-1.981c0.08-0.234,0.163-0.469,0.24-0.704c0.232-0.714,0.447-1.437,0.653-2.16
		c0.059-0.199,0.115-0.396,0.171-0.597c0.199-0.732,0.383-1.472,0.556-2.215c0.048-0.208,0.097-0.413,0.143-0.619
		c0.159-0.716,0.301-1.435,0.434-2.159c0.045-0.254,0.095-0.509,0.137-0.763c0.114-0.665,0.212-1.335,0.305-2.009
		c0.045-0.332,0.086-0.663,0.126-0.994c0.07-0.6,0.132-1.197,0.187-1.798c0.035-0.428,0.066-0.856,0.099-1.285
		c0.035-0.52,0.064-1.038,0.086-1.562c0.006-0.117,0.006-0.234,0.01-0.349v-4.29c-0.016-0.43-0.028-0.858-0.054-1.285
		c-0.031-0.555-0.078-1.106-0.124-1.661c-0.038-0.443-0.071-0.89-0.118-1.332c-0.054-0.514-0.125-1.028-0.194-1.539
		c-0.062-0.476-0.121-0.953-0.197-1.428c-0.07-0.464-0.159-0.928-0.248-1.392c-0.092-0.51-0.179-1.022-0.286-1.526
		c-0.087-0.424-0.191-0.846-0.289-1.266c-0.127-0.539-0.244-1.078-0.384-1.607c-0.104-0.401-0.226-0.8-0.341-1.201
		c-0.152-0.542-0.3-1.083-0.469-1.616c-0.129-0.409-0.271-0.812-0.408-1.218c-0.178-0.519-0.347-1.041-0.535-1.553
		c-0.157-0.424-0.331-0.844-0.498-1.267c-0.19-0.482-0.378-0.973-0.58-1.452c-0.186-0.435-0.388-0.861-0.582-1.293
		c-0.212-0.462-0.414-0.924-0.633-1.377c-0.207-0.429-0.434-0.848-0.647-1.272c-0.233-0.45-0.46-0.905-0.706-1.347
		c-0.219-0.401-0.456-0.799-0.686-1.2c-0.264-0.456-0.526-0.916-0.8-1.37c-0.226-0.365-0.467-0.725-0.702-1.088
		c-0.303-0.476-0.608-0.953-0.928-1.419c-0.23-0.338-0.472-0.668-0.709-1.001c-0.343-0.481-0.688-0.963-1.047-1.434
		c-0.243-0.319-0.495-0.634-0.747-0.951c-0.369-0.464-0.741-0.93-1.124-1.385c-0.104-0.124-0.202-0.256-0.308-0.383L586.878,302.734
		c-11.675-13.675-28.16-20.803-44.829-21.051v-0.022h-5.317v53.142h45.984c18.55,0,33.644,15.093,33.644,33.645v227.964
		c0,8.532-3.209,16.317-8.464,22.252h-22.759c9.566-3.057,16.497-12.017,16.497-22.598V374.1c0-13.101-10.622-23.723-23.726-23.723
		H222.087c-13.101,0-23.722,10.622-23.722,23.723v221.966c0,10.581,6.928,19.539,16.496,22.598h-22.759
		c-5.255-5.937-8.464-13.722-8.464-22.254V368.451c0-18.554,15.092-33.646,33.645-33.646h45.983v-53.142
		c0,0-7.885,0.152-10.508,0.325c-14.899,0.983-29.178,8.497-39.639,20.749L21.235,527.462c-0.107,0.124-0.205,0.256-0.31,0.381
		c-0.382,0.456-0.753,0.92-1.123,1.386c-0.25,0.318-0.504,0.633-0.748,0.951c-0.358,0.471-0.704,0.952-1.047,1.435
		c-0.237,0.333-0.479,0.662-0.708,1c-0.319,0.467-0.625,0.942-0.93,1.418c-0.234,0.362-0.473,0.723-0.699,1.09
		c-0.276,0.452-0.538,0.912-0.801,1.37c-0.232,0.4-0.467,0.798-0.687,1.199c-0.244,0.442-0.469,0.897-0.7,1.348
		c-0.219,0.424-0.443,0.843-0.651,1.271c-0.221,0.453-0.423,0.915-0.632,1.377c-0.196,0.43-0.399,0.859-0.584,1.293
		c-0.204,0.48-0.388,0.971-0.58,1.453c-0.167,0.425-0.342,0.842-0.498,1.266c-0.189,0.513-0.36,1.034-0.533,1.554
		c-0.138,0.407-0.283,0.809-0.41,1.215c-0.168,0.536-0.317,1.077-0.47,1.619c-0.114,0.399-0.234,0.799-0.34,1.2
		c-0.137,0.528-0.256,1.069-0.382,1.608c-0.098,0.42-0.202,0.841-0.292,1.266c-0.106,0.506-0.19,1.016-0.284,1.526
		c-0.085,0.464-0.175,0.927-0.249,1.391c-0.074,0.476-0.133,0.951-0.194,1.429c-0.07,0.513-0.142,1.025-0.196,1.538
		c-0.047,0.441-0.08,0.888-0.118,1.333c-0.045,0.555-0.092,1.106-0.125,1.66c-0.024,0.432-0.037,0.864-0.053,1.3
		c-0.001,0.007-0.001,0.015-0.001,0.021v4.191c0.004,0.138,0.005,0.275,0.011,0.411c0.021,0.523,0.051,1.04,0.085,1.562
		c0.028,0.429,0.061,0.854,0.099,1.286c0.054,0.6,0.115,1.198,0.186,1.794c0.04,0.335,0.082,0.666,0.127,0.997
		c0.091,0.674,0.193,1.346,0.305,2.01c0.044,0.254,0.09,0.508,0.138,0.762c0.131,0.723,0.273,1.444,0.433,2.16
		c0.045,0.205,0.095,0.411,0.143,0.619c0.172,0.743,0.354,1.481,0.556,2.214c0.055,0.202,0.113,0.397,0.169,0.597
		c0.207,0.725,0.422,1.444,0.652,2.16c0.077,0.233,0.161,0.47,0.241,0.705c0.227,0.667,0.457,1.327,0.705,1.98
		c0.115,0.308,0.241,0.614,0.363,0.918c0.228,0.57,0.457,1.141,0.699,1.699c0.175,0.401,0.361,0.8,0.542,1.196
		c0.211,0.458,0.42,0.915,0.642,1.365c0.241,0.492,0.497,0.981,0.752,1.467c0.184,0.347,0.363,0.695,0.553,1.038
		c0.308,0.563,0.632,1.118,0.96,1.67c0.157,0.262,0.311,0.527,0.472,0.788c0.362,0.591,0.742,1.175,1.129,1.756
		c0.146,0.221,0.289,0.441,0.438,0.659c0.398,0.584,0.812,1.16,1.231,1.73c0.161,0.214,0.317,0.432,0.479,0.645
		c0.41,0.544,0.833,1.076,1.265,1.607c0.197,0.244,0.393,0.484,0.594,0.725c0.402,0.479,0.813,0.95,1.231,1.418
		c0.258,0.29,0.52,0.576,0.785,0.863c0.373,0.402,0.751,0.798,1.14,1.192c0.341,0.349,0.686,0.692,1.033,1.03
		c0.335,0.324,0.671,0.646,1.015,0.965c0.427,0.396,0.859,0.782,1.296,1.164c0.188,0.162,0.362,0.333,0.55,0.491
		c0.116,0.101,0.236,0.191,0.353,0.288c0.482,0.407,0.974,0.802,1.471,1.192c0.288,0.229,0.577,0.462,0.869,0.683
		c0.499,0.38,1.006,0.747,1.518,1.109c0.307,0.218,0.612,0.441,0.922,0.656c0.492,0.335,0.995,0.658,1.498,0.979
		c0.337,0.217,0.672,0.438,1.015,0.648c0.478,0.295,0.967,0.571,1.455,0.854c0.037,0.019,0.073,0.039,0.108,0.061H6.891v34.604
		h786.219v-34.604h-30.231v-0.004C762.913,618.641,762.948,618.621,762.986,618.602z"/>
</g>
</svg>
