<?xml version="1.0" encoding="utf-8"?>
<!-- Generator: Adobe Illustrator 17.1.0, SVG Export Plug-In . SVG Version: 6.00 Build 0)  -->
<!DOCTYPE svg PUBLIC "-//W3C//DTD SVG 1.1//EN" "http://www.w3.org/Graphics/SVG/1.1/DTD/svg11.dtd">
<svg version="1.1" id="Layer_1" xmlns="http://www.w3.org/2000/svg" xmlns:xlink="http://www.w3.org/1999/xlink" x="0px" y="0px"
	 width="1000px" height="1000px" viewBox="0 0 1000 1000" fill="#ffffff" enable-background="new 0 0 1000 1000" xml:space="preserve">
<g>
	<path d="M136.637,909.272c12.932,12.932,33.899,12.932,46.832,0l437.854-437.855L473.514,323.609L35.659,761.463
		c-12.932,12.932-12.932,33.899,0,46.831L136.637,909.272z"/>
	<path d="M957.967,349.886c-14.595-14.595-38.258-14.595-52.853,0L891.02,363.98l-31.651-31.651l-130.37,130.37l31.652,31.652
		l-14.094,14.094c-14.595,14.595-14.595,38.258,0,52.853l7.047,7.047c14.595,14.595,38.258,14.595,52.853,0l158.558-158.558
		c14.595-14.595,14.595-38.258,0-52.853L957.967,349.886z"/>
	<path d="M480.721,217.444L609.549,88.617c-67.477-44.102-169.99-85.148-250.774-4.364
		C243.485,199.542,329.387,113.653,480.721,217.444z"/>
	<path d="M485.817,247.704c-14.595,14.595-14.595,38.258,0,52.853l5.374,5.374L639,453.74l5.374,5.374
		c7.297,7.297,16.862,10.946,26.426,10.946s19.129-3.649,26.426-10.946l14.094-14.094l130.37-130.37l14.094-14.094
		c14.595-14.595,14.595-38.258,0-52.853L697.227,89.146C689.93,81.849,680.366,78.2,670.801,78.2s-19.129,3.649-26.426,10.946
		l-13.946,13.946L501.163,232.357L485.817,247.704z"/>
</g>
</svg>
